<svg width="273" height="92" viewBox="0 0 273 92" fill="none" xmlns="http://www.w3.org/2000/svg">
    <rect width="273" height="92" fill="white" />
    <path
        d="M177.153 78.3896C178.348 78.3896 179 78.823 179 79.7984V80.3402C179 82.2908 175.415 85 170.853 85C165.53 85 161.945 82.5075 157.817 78.0645L156.296 76.3306C149.996 81.749 141.957 85 132.18 85C115.885 85 106 77.8477 106 64.7352C106 54.7654 114.473 48.0466 125.119 42.5199C119.579 36.3429 115.125 30.9246 115.125 23.3388C115.125 12.9355 123.164 6 135.113 6C146.085 6 153.472 12.5021 153.472 21.8217C153.472 31.2497 145.107 37.7517 137.286 41.5446L158.251 64.3018C161.945 56.9328 163.9 47.8299 163.9 38.0768C163.9 34.8258 171.179 34.6091 171.179 38.1852C171.179 49.9973 168.246 60.834 162.705 69.07L165.964 72.6461C170.201 77.1975 172.374 78.3896 174.437 78.3896H177.153ZM134.135 9.57613C128.595 9.57613 124.902 14.2359 124.902 21.0631C124.902 27.7819 128.704 32.3333 133.81 37.8601C141.522 33.417 144.129 27.5652 144.129 21.7133C144.129 14.561 140.11 9.57613 134.135 9.57613ZM133.375 81.6406C141.196 81.6406 147.714 78.2812 152.82 72.5377L128.378 45.9877C120.013 51.0809 115.777 57.4746 115.777 65.6022C115.777 74.8134 122.295 81.6406 133.375 81.6406Z"
        fill="#0D21A1" />
    <path
        d="M192 6H214.571V85H192V6ZM225.857 28.5714H237.143V17.2857H248.429V6H271V17.2857H259.714V28.5714H248.429V39.8571H237.143V51.1429H248.429V62.4286H259.714V73.7143H271V85H248.429V73.7143H237.143V62.4286H225.857V28.5714Z"
        fill="#0D21A1" />
    <path d="M3 6H25.5714V85H3V6ZM36.8571 39.8571H59.4286V6H82V85H59.4286V51.1429H36.8571V39.8571Z"
        fill="#0D21A1" />
</svg>
    